# xmcd
#
# Track frame offsets:
#	150
#	9347
#	22820
#	36362
#	49055
#	63657
#	77260
#	100367
#	115767
#	133982
#	151147
#	160780
#
# Disc length: 2454 seconds
#
# Revision: 1
# Processed by: cddbd v1.5.2PL0 Copyright (c) Steve Scherf et al.
# Submitted via: audiograbber 1.83.01
#
DISCID=8b09940c
DTITLE=Ganz Schön Feist - Aphrodisiakum
DYEAR=2007
DGENRE=
TTITLE0=Wie geht´s
TTITLE1=Seit ich mich kenne
TTITLE2=Deine Brüder
TTITLE3=Tage
TTITLE4=Unfortschnittly
TTITLE5=Innere Werte
TTITLE6=Aphrodisiakum
TTITLE7=Choreographie
TTITLE8=Orgasmus vor
TTITLE9=Julio
TTITLE10=Die Liböe (Tränen lügen nicht)
TTITLE11=Aphrodisiakum mit Geigerhofquartett
EXTD=
EXTT0=
EXTT1=
EXTT2=
EXTT3=
EXTT4=
EXTT5=
EXTT6=
EXTT7=
EXTT8=
EXTT9=
EXTT10=
EXTT11=
PLAYORDER=
